<svg width="158" height="20" viewBox="0 0 158 20" fill="none" xmlns="http://www.w3.org/2000/svg">
<path d="M13.5955 0H19.7753V19.8876H13.5955V12.1348H6.17977V19.8876H0V0H6.17977V7.7528H13.5955V0Z" fill="#F8C617"/>
<path d="M24.7189 0H31.1234V19.8876H24.7189V0Z" fill="#F8C617"/>
<path d="M54.2694 5.84269H48.0897V4.49437C48.0897 4.04494 47.9773 3.82022 47.8649 3.70786C47.7526 3.5955 47.4155 3.48314 47.0784 3.48314H43.1458C42.6964 3.48314 42.4717 3.5955 42.3593 3.70786C42.247 3.82022 42.1346 4.04494 42.1346 4.49437V15.618C42.1346 16.0674 42.247 16.2921 42.3593 16.4045C42.4717 16.5168 42.6964 16.6292 43.1458 16.6292H47.0784C47.5279 16.6292 47.7526 16.5168 47.8649 16.4045C47.9773 16.2921 48.0897 16.0674 48.0897 15.618V12.2472H44.8312V7.86516H54.2694V17.4157C54.2694 19.1011 53.3705 20 51.6851 20H38.5391C36.8537 20 35.9548 19.2135 35.9548 17.4157V2.58427C35.9548 0.898875 36.7414 0 38.5391 0H51.7975C53.4829 0 54.3818 0.898875 54.3818 2.58427V5.84269H54.2694Z" fill="#F8C617"/>
<path d="M72.6967 0H78.8765V19.8876H72.6967V12.1348H65.281V19.8876H59.1013V0H65.281V7.7528H72.6967V0Z" fill="#F8C617"/>
<path d="M110.674 0H116.629L110.224 19.8876H103.033L99.2132 6.29213L95.393 19.8876H88.202L81.7975 0H88.0896L91.7975 14.382L95.6177 0H102.696L106.517 14.382L110.674 0Z" fill="#F8C617"/>
<path d="M132.022 20L130.899 16.4045L122.584 16.2921L121.348 19.8876H115.393L122.921 0H130.562L138.202 19.8876H132.022V20ZM123.933 11.9101H129.326L126.629 3.70786L123.933 11.9101Z" fill="#F8C617"/>
<path d="M149.888 19.9999H143.708V13.4831L135.618 0.112305H141.685L146.742 10.1123L151.573 0.112305H157.64L149.888 13.4831V19.9999Z" fill="#F8C617"/>
</svg>
